<svg width="73" height="73" viewBox="0 0 73 73" fill="none" xmlns="http://www.w3.org/2000/svg">
<path d="M57.0396 63.0583H45.2409H42.0638H41.3776V47.2322H46.5535C47.8662 47.2322 48.6418 45.7406 47.8662 44.6666L37.7977 30.7349C37.1563 29.8399 35.8288 29.8399 35.1874 30.7349L25.1189 44.6666C24.3433 45.7406 25.104 47.2322 26.4315 47.2322H31.6075V63.0583H30.9213H27.7442H14.066C6.23498 62.6258 0 55.3019 0 47.3665C0 41.8922 2.96833 37.119 7.36862 34.5385C6.96588 33.4496 6.75705 32.2862 6.75705 31.063C6.75705 25.4694 11.2767 20.9498 16.8703 20.9498C18.0785 20.9498 19.2419 21.1587 20.3308 21.5614C23.5676 14.6999 30.5484 9.94165 38.6629 9.94165C49.1639 9.95657 57.8153 17.9964 58.7998 28.2439C66.8694 29.6311 73 37.1041 73 45.5616C73 54.6008 65.9595 62.4318 57.0396 63.0583Z" fill="url(#paint0_linear)"/>
<defs>
<linearGradient id="paint0_linear" x1="36.5" y1="9.94165" x2="36.5" y2="63.0583" gradientUnits="userSpaceOnUse">
<stop stop-color="#59E043"/>
<stop offset="1" stop-color="#93FD82"/>
</linearGradient>
</defs>
</svg>
